<?xml version="1.0" standalone="no"?>
<!DOCTYPE svg PUBLIC "-//W3C//DTD SVG 20010904//EN"
 "http://www.w3.org/TR/2001/REC-SVG-20010904/DTD/svg10.dtd">
<svg version="1.0" xmlns="http://www.w3.org/2000/svg"
 width="180.000000pt" height="103.000000pt" viewBox="0 0 180.000000 103.000000"
 preserveAspectRatio="xMidYMid meet">

<g transform="translate(0.000000,103.000000) scale(0.100000,-0.100000)"
fill="#000000" stroke="none">
<path d="M763 1020 c-12 -5 -36 -39 -58 -82 -21 -40 -48 -88 -61 -107 -30 -43
-30 -66 0 -115 l23 -38 68 116 c37 64 75 121 85 126 22 12 110 13 110 3 -1 -5
-7 -19 -15 -33 -26 -45 -20 -60 24 -60 21 0 43 6 48 13 15 19 25 66 27 125 l1
52 -36 0 c-19 0 -57 -11 -83 -24 l-48 -24 22 23 21 22 -38 7 c-48 7 -63 7 -90
-4z"/>
<path d="M1072 762 c-77 -137 -85 -144 -151 -140 l-52 3 30 48 31 47 -46 0
c-62 0 -78 -11 -119 -81 -40 -69 -42 -80 -17 -102 28 -26 282 -25 304 1 29 33
128 213 128 233 0 17 -36 99 -43 99 -2 0 -31 -49 -65 -108z"/>
<path d="M12 322 c-9 -3 -12 -46 -12 -157 0 -163 1 -165 51 -165 17 0 19 8 19
65 l0 65 65 0 65 0 0 -64 0 -64 33 1 32 2 3 158 c2 102 -1 157 -8 158 -56 6
-55 8 -58 -64 l-3 -67 -64 0 -64 0 -3 67 c-3 59 -5 67 -23 68 -12 1 -26 0 -33
-3z"/>
<path d="M430 323 c-70 -28 -117 -107 -106 -176 10 -59 41 -103 90 -126 55
-27 102 -26 156 2 50 26 90 90 90 141 0 42 -38 115 -72 140 -28 20 -127 32
-158 19z m118 -78 c38 -32 48 -72 28 -118 -20 -48 -56 -71 -100 -63 -61 12
-97 81 -72 141 28 66 92 84 144 40z"/>
<path d="M674 319 c-2 -4 20 -76 49 -161 43 -123 58 -154 74 -156 28 -4 36 10
69 121 15 53 31 97 34 97 3 0 18 -45 34 -100 49 -169 70 -163 143 45 29 81 51
150 49 154 -2 3 -19 6 -37 6 -32 0 -33 -1 -62 -88 -16 -48 -32 -85 -36 -82 -4
2 -16 35 -26 72 -25 94 -28 98 -67 97 -32 0 -34 -2 -59 -79 -14 -43 -30 -80
-35 -82 -6 -2 -16 18 -23 44 -22 84 -42 116 -74 118 -16 0 -30 -2 -33 -6z"/>
<path d="M1231 313 c-79 -39 -110 -158 -62 -236 25 -41 91 -77 141 -77 38 0
116 34 123 55 3 7 -3 21 -14 31 -19 17 -21 17 -48 1 -74 -44 -151 -5 -151 75
0 54 19 83 65 98 31 10 41 9 78 -9 41 -21 42 -21 61 -1 17 16 18 21 5 36 -36
43 -137 57 -198 27z"/>
<path d="M1552 314 c-98 -50 -115 -183 -33 -265 110 -110 296 -17 278 139 -5
47 -27 84 -70 116 -37 27 -130 33 -175 10z m132 -59 c56 -37 58 -124 5 -169
-35 -30 -58 -32 -99 -11 -37 19 -50 43 -50 95 0 78 81 126 144 85z"/>
</g>
</svg>
